<svg xmlns="http://www.w3.org/2000/svg" width="512" height="512" viewBox="0 0 512 512">
  <rect width="512" height="512" fill="#d6d5d0"/>
  <rect width="512" height="512" fill="#fbfbf8" opacity="0.08"/>
  <path d="M0 96H512M0 192H512M0 288H512M0 384H512" stroke="#84847d" stroke-width="6" opacity="0.26"/>
  <path d="M96 0V512M192 0V512M288 0V512M384 0V512" stroke="#f7f7f2" stroke-width="4" opacity="0.22"/>
  <g fill="#9a9992" opacity="0.26">
    <circle cx="42" cy="66" r="4"/>
    <circle cx="134" cy="172" r="4"/>
    <circle cx="206" cy="88" r="3"/>
    <circle cx="300" cy="244" r="4"/>
    <circle cx="404" cy="126" r="3.5"/>
    <circle cx="460" cy="330" r="4"/>
    <circle cx="92" cy="304" r="3.5"/>
    <circle cx="172" cy="430" r="4"/>
    <circle cx="324" cy="408" r="3.5"/>
    <circle cx="438" cy="436" r="4"/>
  </g>
  <g fill="#ffffff" opacity="0.16">
    <rect x="22" y="28" width="86" height="10" rx="5"/>
    <rect x="180" y="214" width="118" height="12" rx="6"/>
    <rect x="330" y="78" width="92" height="10" rx="5"/>
    <rect x="350" y="360" width="102" height="12" rx="6"/>
    <rect x="104" y="394" width="96" height="10" rx="5"/>
  </g>
  <g stroke="#6e6d67" stroke-width="2" opacity="0.12">
    <path d="M22 118c34 -10 70 -8 102 5"/>
    <path d="M214 330c40 -8 70 -6 112 7"/>
    <path d="M346 214c28 -10 60 -10 94 3"/>
    <path d="M88 470c38 -11 76 -10 118 1"/>
  </g>
</svg>
